# xmcd
#
# Track frame offsets:
#	150
#	19457
#	29805
#	42665
#	63432
#	82750
#	100367
#	111832
#	131652
#	141110
#	157670
#	172672
#	200485
#	216335
#	229295
#
# Disc length: 3565 seconds
#
# Revision: 1
# Processed by: cddbd v1.5.1PL0 Copyright (c) Steve Scherf et al.
# Submitted via: CDex 1.50Beta5
#
DISCID=d30deb0f
DTITLE=I.Gitlis - Ivry Gitlis/Violin Melodies vol.2
DYEAR=1900
DGENRE=
TTITLE0=ロンドンデリーの歌
TTITLE1=ホラ・スタッカート
TTITLE2=愛の挨拶
TTITLE3=タイースの瞑想曲
TTITLE4=金婚式
TTITLE5=カンタービレ
TTITLE6=感傷的なワルツ
TTITLE7=ハバネラ
TTITLE8=美しきロスマリン
TTITLE9=歌の翼に
TTITLE10=ベートーヴェンの主題によるロンディーノ
TTITLE11=G線上のアリア
TTITLE12=愛の喜び
TTITLE13=ハバネラ形式の小品
TTITLE14=ツィゴイネルワイゼン
EXTD=
EXTT0=
EXTT1=
EXTT2=
EXTT3=
EXTT4=
EXTT5=
EXTT6=
EXTT7=
EXTT8=
EXTT9=
EXTT10=
EXTT11=
EXTT12=
EXTT13=
EXTT14=
PLAYORDER=
